<svg width="24" height="28" viewBox="0 0 24 28" fill="none" xmlns="http://www.w3.org/2000/svg">
<rect x="1" y="3" width="22" height="22" rx="11" fill="white" style="fill:white;fill-opacity:1;"/>
<rect x="1" y="3" width="22" height="22" rx="11" stroke="#543C52" style="stroke:#543C52;stroke:color(display-p3 0.3294 0.2353 0.3216);stroke-opacity:1;" stroke-width="2"/>
<path d="M16.8672 14.8102H12.8107V18.8667C12.8107 19.0819 12.7252 19.2882 12.5731 19.4404C12.4209 19.5925 12.2146 19.678 11.9994 19.678C11.7842 19.678 11.5779 19.5925 11.4257 19.4404C11.2736 19.2882 11.1881 19.0819 11.1881 18.8667V14.8102H7.13161C6.91644 14.8102 6.71008 14.7247 6.55794 14.5726C6.40579 14.4204 6.32031 14.2141 6.32031 13.9989C6.32031 13.7837 6.40579 13.5774 6.55794 13.4252C6.71008 13.2731 6.91644 13.1876 7.13161 13.1876H11.1881V9.13112C11.1881 8.91595 11.2736 8.70959 11.4257 8.55745C11.5779 8.4053 11.7842 8.31982 11.9994 8.31982C12.2146 8.31982 12.4209 8.4053 12.5731 8.55745C12.7252 8.70959 12.8107 8.91595 12.8107 9.13112V13.1876H16.8672C17.0823 13.1876 17.2887 13.2731 17.4408 13.4252C17.593 13.5774 17.6785 13.7837 17.6785 13.9989C17.6785 14.2141 17.593 14.4204 17.4408 14.5726C17.2887 14.7247 17.0823 14.8102 16.8672 14.8102Z" fill="#543C52" style="fill:#543C52;fill:color(display-p3 0.3294 0.2353 0.3216);fill-opacity:1;"/>
</svg>
