<svg width="26" height="26" viewBox="0 0 26 26" fill="none" xmlns="http://www.w3.org/2000/svg">
<path d="M2.5795 12.7481C2.57941 12.0229 2.75958 11.3091 3.10379 10.6709C3.448 10.0326 3.94547 9.48992 4.55144 9.09162C5.15742 8.69331 5.8529 8.45187 6.57533 8.38902C7.29776 8.32617 8.02448 8.44388 8.69014 8.73157C9.35579 9.01925 9.9395 9.46788 10.3888 10.0371C10.838 10.6063 11.1387 11.2783 11.2639 11.9926C11.389 12.7069 11.3346 13.4411 11.1056 14.1291C10.8766 14.8172 10.4802 15.4375 9.952 15.9343C10.9479 16.4178 11.8126 17.1343 12.4727 18.0229C13.1329 18.9116 13.5692 19.9463 13.7445 21.0393C13.7638 21.161 13.7589 21.2852 13.7302 21.405C13.7015 21.5247 13.6494 21.6377 13.5771 21.7373C13.5047 21.837 13.4134 21.9214 13.3084 21.9858C13.2034 22.0501 13.0868 22.0932 12.9651 22.1125C12.8435 22.1318 12.7192 22.1269 12.5995 22.0982C12.4797 22.0694 12.3668 22.0174 12.2672 21.945C12.1675 21.8727 12.0831 21.7814 12.0187 21.6764C11.9543 21.5714 11.9113 21.4547 11.892 21.3331C11.7045 20.1585 11.1044 19.0892 10.1995 18.3172C9.29451 17.5453 8.14399 17.1212 6.9545 17.1212C5.76502 17.1212 4.6145 17.5453 3.70954 18.3172C2.80459 19.0892 2.20449 20.1585 2.017 21.3331C1.99763 21.4547 1.95449 21.5714 1.89005 21.6763C1.82561 21.7813 1.74112 21.8725 1.64141 21.9449C1.54171 22.0172 1.42873 22.0691 1.30894 22.0978C1.18915 22.1264 1.06489 22.1312 0.943253 22.1118C0.821616 22.0925 0.704985 22.0493 0.60002 21.9849C0.495055 21.9205 0.403811 21.836 0.331497 21.7363C0.259183 21.6365 0.207216 21.5236 0.178564 21.4038C0.149911 21.284 0.145133 21.1597 0.164503 21.0381C0.339218 19.9451 0.775245 18.9105 1.43552 18.0221C2.0958 17.1338 2.9608 16.418 3.957 15.9356C3.522 15.5264 3.17538 15.0326 2.93848 14.4844C2.70157 13.9362 2.57941 13.3453 2.5795 12.7481ZM13.8295 10.8731C14.5558 10.8736 15.2663 11.0849 15.8748 11.4814C16.4833 11.8779 16.9636 12.4425 17.2574 13.1067C17.5512 13.7708 17.646 14.506 17.5301 15.223C17.4142 15.9399 17.0926 16.6078 16.6045 17.1456C17.3658 17.5227 18.0422 18.0511 18.5924 18.6984C19.1426 19.3458 19.555 20.0985 19.8045 20.9106C19.8541 21.0682 19.861 21.2361 19.8247 21.3972C19.7884 21.5584 19.7101 21.7071 19.5977 21.8282C19.4854 21.9493 19.343 22.0385 19.185 22.0868C19.0271 22.1351 18.8591 22.1407 18.6983 22.1031C18.5374 22.0659 18.3893 21.9869 18.2688 21.8741C18.1483 21.7613 18.0597 21.6186 18.012 21.4606C17.7876 20.736 17.3793 20.082 16.8268 19.5624C16.2742 19.0427 15.5964 18.6752 14.8595 18.4956C14.6548 18.4462 14.4727 18.3293 14.3425 18.1638C14.2124 17.9982 14.1417 17.7937 14.142 17.5831V17.1431C14.1419 16.9686 14.1905 16.7975 14.2824 16.649C14.3742 16.5006 14.5057 16.3808 14.662 16.3031C15.041 16.1153 15.3453 15.8049 15.5256 15.4223C15.7058 15.0397 15.7514 14.6074 15.655 14.1956C15.5586 13.7838 15.3258 13.4167 14.9944 13.1539C14.663 12.8911 14.2524 12.7481 13.8295 12.7481C13.5809 12.7481 13.3424 12.6493 13.1666 12.4735C12.9908 12.2977 12.892 12.0592 12.892 11.8106C12.892 11.562 12.9908 11.3235 13.1666 11.1477C13.3424 10.9719 13.5809 10.8731 13.8295 10.8731ZM6.9545 10.2481C6.62158 10.2406 6.29051 10.2996 5.98072 10.4218C5.67094 10.544 5.38869 10.7268 5.15054 10.9596C4.91239 11.1924 4.72314 11.4704 4.59391 11.7773C4.46468 12.0842 4.39807 12.4138 4.39798 12.7468C4.3979 13.0798 4.46435 13.4095 4.59343 13.7165C4.7225 14.0235 4.91161 14.3016 5.14964 14.5344C5.38767 14.7673 5.66984 14.9503 5.97956 15.0726C6.28928 15.195 6.62033 15.2542 6.95325 15.2468C7.60645 15.2324 8.22805 14.9628 8.68497 14.4958C9.14188 14.0288 9.39782 13.4014 9.39798 12.7481C9.39815 12.0947 9.14252 11.4673 8.68584 11C8.22915 10.5328 7.6077 10.2629 6.9545 10.2481Z" fill="#070A1C" style="fill:#070A1C;fill:color(display-p3 0.0275 0.0392 0.1098);fill-opacity:1;"/>
<rect x="9.875" y="1.125" width="14.25" height="14.25" rx="7.125" fill="#FF4C4C" style="fill:#FF4C4C;fill:color(display-p3 1.0000 0.2980 0.2980);fill-opacity:1;"/>
<rect x="9.875" y="1.125" width="14.25" height="14.25" rx="7.125" stroke="white" style="stroke:white;stroke-opacity:1;" stroke-width="2.25"/>
<path d="M14.795 11.313V10.233L16.595 8.379C16.949 8.013 17.216 7.725 17.396 7.515C17.582 7.299 17.708 7.119 17.774 6.975C17.846 6.831 17.882 6.69 17.882 6.552C17.882 6.306 17.801 6.114 17.639 5.976C17.483 5.832 17.285 5.76 17.045 5.76C16.799 5.76 16.58 5.832 16.388 5.976C16.196 6.114 16.055 6.327 15.965 6.615L14.75 6.219C14.822 5.871 14.972 5.568 15.2 5.31C15.428 5.052 15.704 4.854 16.028 4.716C16.352 4.572 16.691 4.5 17.045 4.5C17.489 4.5 17.879 4.578 18.215 4.734C18.551 4.89 18.812 5.109 18.998 5.391C19.184 5.673 19.277 6.003 19.277 6.381C19.277 6.621 19.235 6.858 19.151 7.092C19.067 7.32 18.938 7.554 18.764 7.794C18.596 8.028 18.377 8.283 18.107 8.559L16.568 10.143H19.34V11.313H14.795Z" fill="white" style="fill:white;fill-opacity:1;"/>
</svg>
