<svg width="400" height="52" viewBox="0 0 400 52" fill="none" xmlns="http://www.w3.org/2000/svg">
<rect width="400" height="52" rx="26" fill="#543C52" style="fill:#543C52;fill:color(display-p3 0.3294 0.2353 0.3216);fill-opacity:1;"/>
<path d="M184.78 19.8H186.796L181.244 31H179.228L181.452 26.504L177.26 19.8H179.388L182.396 24.616L184.78 19.8ZM186.618 23.544H190.042C190.543 23.544 190.964 23.608 191.306 23.736C191.658 23.864 191.914 24.04 192.074 24.264C192.234 24.4773 192.346 24.6853 192.41 24.888C192.474 25.08 192.506 25.288 192.506 25.512C192.506 25.9493 192.335 26.3227 191.994 26.632C191.652 26.9413 191.247 27.112 190.778 27.144C191.29 27.1653 191.727 27.336 192.09 27.656C192.463 27.9653 192.65 28.392 192.65 28.936C192.65 29.1493 192.607 29.3627 192.522 29.576C192.447 29.7893 192.319 30.0133 192.138 30.248C191.956 30.472 191.674 30.6533 191.29 30.792C190.916 30.9307 190.463 31 189.93 31H186.618V23.544ZM189.898 26.6C190.154 26.6 190.362 26.5147 190.522 26.344C190.682 26.1627 190.762 25.944 190.762 25.688C190.762 25.4213 190.682 25.2027 190.522 25.032C190.362 24.8507 190.154 24.76 189.898 24.76H188.314V26.6H189.898ZM188.314 27.816V29.784H189.962C190.228 29.784 190.452 29.688 190.634 29.496C190.815 29.304 190.906 29.0747 190.906 28.808C190.906 28.5413 190.815 28.312 190.634 28.12C190.452 27.9173 190.228 27.816 189.962 27.816H188.314ZM196.127 22.104C195.881 22.3493 195.572 22.472 195.199 22.472C194.825 22.472 194.516 22.3493 194.271 22.104C194.025 21.848 193.903 21.5387 193.903 21.176C193.903 20.8133 194.025 20.5093 194.271 20.264C194.516 20.008 194.825 19.88 195.199 19.88C195.572 19.88 195.881 20.008 196.127 20.264C196.372 20.5093 196.495 20.8133 196.495 21.176C196.495 21.5387 196.372 21.848 196.127 22.104ZM194.319 31V23.544H196.063V31H194.319ZM203.583 22.456C203.071 22.872 202.388 23.08 201.535 23.08C200.682 23.08 199.994 22.872 199.471 22.456C198.959 22.0293 198.676 21.4533 198.623 20.728H200.095C200.138 21.4533 200.618 21.816 201.535 21.816C202.452 21.816 202.932 21.4533 202.975 20.728H204.447C204.394 21.4533 204.106 22.0293 203.583 22.456ZM203.263 26.2L199.951 30.376V31H198.207V23.544H199.951V28.424L203.263 24.216V23.544H205.007V31H203.263V26.2ZM212.55 23.544V25.16H210.39V31H208.646V25.16H206.518V23.544H212.55ZM219.102 26.2L215.79 30.376V31H214.046V23.544H215.79V28.424L219.102 24.216V23.544H220.846V31H219.102V26.2Z" fill="white" style="fill:white;fill-opacity:1;"/>
</svg>
