<svg width="399" height="52" viewBox="0 0 399 52" fill="none" xmlns="http://www.w3.org/2000/svg">
<rect width="399" height="52" rx="26" fill="#543C52" style="fill:#543C52;fill:color(display-p3 0.3294 0.2353 0.3216);fill-opacity:1;"/>
<path d="M143.384 31.272C141.592 31.272 140.173 30.728 139.128 29.64C138.083 28.552 137.56 27.1387 137.56 25.4C137.56 23.6613 138.083 22.248 139.128 21.16C140.173 20.072 141.592 19.528 143.384 19.528C144.888 19.528 146.125 19.912 147.096 20.68C148.067 21.4373 148.637 22.424 148.808 23.64H146.792C146.611 22.872 146.227 22.2693 145.64 21.832C145.064 21.3947 144.317 21.176 143.4 21.176C142.173 21.176 141.213 21.56 140.52 22.328C139.837 23.0853 139.496 24.1093 139.496 25.4C139.496 26.6907 139.837 27.72 140.52 28.488C141.213 29.2453 142.173 29.624 143.4 29.624C144.317 29.624 145.064 29.4053 145.64 28.968C146.227 28.5307 146.611 27.928 146.792 27.16H148.808C148.637 28.376 148.067 29.368 147.096 30.136C146.125 30.8933 144.888 31.272 143.384 31.272ZM155.713 23.544V25.16H153.553V31H151.809V25.16H149.681V23.544H155.713ZM157.209 23.544H160.633C161.135 23.544 161.556 23.608 161.897 23.736C162.249 23.864 162.505 24.04 162.665 24.264C162.825 24.4773 162.937 24.6853 163.001 24.888C163.065 25.08 163.097 25.288 163.097 25.512C163.097 25.9493 162.927 26.3227 162.585 26.632C162.244 26.9413 161.839 27.112 161.369 27.144C161.881 27.1653 162.319 27.336 162.681 27.656C163.055 27.9653 163.241 28.392 163.241 28.936C163.241 29.1493 163.199 29.3627 163.113 29.576C163.039 29.7893 162.911 30.0133 162.729 30.248C162.548 30.472 162.265 30.6533 161.881 30.792C161.508 30.9307 161.055 31 160.521 31H157.209V23.544ZM160.489 26.6C160.745 26.6 160.953 26.5147 161.113 26.344C161.273 26.1627 161.353 25.944 161.353 25.688C161.353 25.4213 161.273 25.2027 161.113 25.032C160.953 24.8507 160.745 24.76 160.489 24.76H158.905V26.6H160.489ZM158.905 27.816V29.784H160.553C160.82 29.784 161.044 29.688 161.225 29.496C161.407 29.304 161.497 29.0747 161.497 28.808C161.497 28.5413 161.407 28.312 161.225 28.12C161.044 27.9173 160.82 27.816 160.553 27.816H158.905ZM171.15 30.088C170.446 30.824 169.491 31.192 168.286 31.192C167.081 31.192 166.121 30.824 165.406 30.088C164.702 29.3413 164.35 28.4027 164.35 27.272C164.35 26.1413 164.702 25.208 165.406 24.472C166.121 23.7253 167.081 23.352 168.286 23.352C169.491 23.352 170.446 23.7253 171.15 24.472C171.865 25.208 172.222 26.1413 172.222 27.272C172.222 28.4027 171.865 29.3413 171.15 30.088ZM166.67 28.984C167.065 29.4213 167.603 29.64 168.286 29.64C168.969 29.64 169.502 29.4213 169.886 28.984C170.281 28.5467 170.478 27.976 170.478 27.272C170.478 26.568 170.281 25.9973 169.886 25.56C169.502 25.1227 168.969 24.904 168.286 24.904C167.603 24.904 167.065 25.1227 166.67 25.56C166.286 25.9973 166.094 26.568 166.094 27.272C166.094 27.976 166.286 28.5467 166.67 28.984ZM178.039 23.352C179.105 23.352 179.964 23.7147 180.615 24.44C181.265 25.1547 181.591 26.0987 181.591 27.272C181.591 28.424 181.249 29.368 180.567 30.104C179.884 30.8293 179.004 31.192 177.927 31.192C177.436 31.192 176.972 31.0853 176.535 30.872C176.097 30.648 175.767 30.3547 175.543 29.992V34.36H173.799V23.544H175.543V24.552C175.767 24.1893 176.108 23.9013 176.567 23.688C177.025 23.464 177.516 23.352 178.039 23.352ZM177.671 29.64C178.311 29.64 178.833 29.4213 179.239 28.984C179.644 28.536 179.847 27.9653 179.847 27.272C179.847 26.5787 179.644 26.0133 179.239 25.576C178.833 25.128 178.311 24.904 177.671 24.904C177.009 24.904 176.476 25.1227 176.071 25.56C175.665 25.9973 175.463 26.568 175.463 27.272C175.463 27.976 175.665 28.5467 176.071 28.984C176.476 29.4213 177.009 29.64 177.671 29.64ZM188.227 26.2L184.915 30.376V31H183.171V23.544H184.915V28.424L188.227 24.216V23.544H189.971V31H188.227V26.2ZM197.514 23.544V25.16H195.354V31H193.61V25.16H191.482V23.544H197.514ZM204.066 26.2L200.754 30.376V31H199.01V23.544H200.754V28.424L204.066 24.216V23.544H205.81V31H204.066V26.2ZM214.969 31.192C213.807 31.192 212.905 30.824 212.265 30.088C211.625 29.352 211.305 28.4133 211.305 27.272C211.305 26.1413 211.641 25.208 212.313 24.472C212.985 23.7253 213.887 23.352 215.017 23.352C215.519 23.352 215.977 23.4587 216.393 23.672C216.809 23.8853 217.129 24.1787 217.353 24.552V23.544H219.097V31H217.353V29.992C217.14 30.3547 216.804 30.648 216.345 30.872C215.897 31.0853 215.439 31.192 214.969 31.192ZM215.225 29.64C215.94 29.64 216.484 29.416 216.857 28.968C217.241 28.52 217.433 27.9547 217.433 27.272C217.433 26.5893 217.241 26.024 216.857 25.576C216.484 25.128 215.94 24.904 215.225 24.904C214.553 24.904 214.02 25.128 213.625 25.576C213.241 26.0133 213.049 26.5787 213.049 27.272C213.049 27.9653 213.241 28.536 213.625 28.984C214.02 29.4213 214.553 29.64 215.225 29.64ZM227.894 31H225.75L222.982 27.592V31H221.238V23.544H222.982V26.664H223.142C223.462 26.664 223.745 26.4987 223.99 26.168L225.302 24.376C225.569 24.0133 225.814 23.7733 226.038 23.656C226.273 23.528 226.587 23.464 226.982 23.464H227.574V25.032H227.318C226.977 25.032 226.699 25.1813 226.486 25.48L225.878 26.328C225.665 26.6373 225.478 26.84 225.318 26.936C225.158 27.0213 224.961 27.064 224.726 27.064H224.614L227.894 31ZM231.793 31.192C230.63 31.192 229.729 30.824 229.089 30.088C228.449 29.352 228.129 28.4133 228.129 27.272C228.129 26.1413 228.465 25.208 229.137 24.472C229.809 23.7253 230.71 23.352 231.841 23.352C232.342 23.352 232.801 23.4587 233.217 23.672C233.633 23.8853 233.953 24.1787 234.177 24.552V23.544H235.921V31H234.177V29.992C233.964 30.3547 233.628 30.648 233.169 30.872C232.721 31.0853 232.262 31.192 231.793 31.192ZM232.049 29.64C232.764 29.64 233.308 29.416 233.681 28.968C234.065 28.52 234.257 27.9547 234.257 27.272C234.257 26.5893 234.065 26.024 233.681 25.576C233.308 25.128 232.764 24.904 232.049 24.904C231.377 24.904 230.844 25.128 230.449 25.576C230.065 26.0133 229.873 26.5787 229.873 27.272C229.873 27.9653 230.065 28.536 230.449 28.984C230.844 29.4213 231.377 29.64 232.049 29.64ZM243.134 23.544H244.878V31.032C244.878 32.1733 244.552 33.0587 243.902 33.688C243.272 34.264 242.43 34.552 241.374 34.552C240.275 34.552 239.422 34.296 238.814 33.784C238.28 33.3147 238.003 32.6693 237.982 31.848H239.742C239.784 32.2747 239.923 32.5893 240.158 32.792C240.403 33.0053 240.798 33.112 241.342 33.112C241.896 33.112 242.334 32.9307 242.654 32.568C242.974 32.216 243.134 31.6613 243.134 30.904V29.96C242.654 30.7813 241.854 31.192 240.734 31.192C239.848 31.192 239.166 30.9093 238.686 30.344C238.216 29.768 237.982 29.016 237.982 28.088V23.544H239.726V27.72C239.726 29.0107 240.264 29.656 241.342 29.656C241.928 29.656 242.371 29.448 242.67 29.032C242.979 28.616 243.134 28.072 243.134 27.4V23.544ZM247.028 31V23.544H248.772V26.488H252.18V23.544H253.924V31H252.18V27.944H248.772V31H247.028ZM261.465 23.544V25.16H259.305V31H257.561V25.16H255.433V23.544H261.465Z" fill="white" style="fill:white;fill-opacity:1;"/>
</svg>
