<svg width="400" height="52" viewBox="0 0 400 52" fill="none" xmlns="http://www.w3.org/2000/svg">
<rect width="400" height="52" rx="26" fill="#543C52" style="fill:#543C52;fill:color(display-p3 0.3294 0.2353 0.3216);fill-opacity:1;"/>
<path d="M158.04 21.448V31H156.2V19.8H164.488V31H162.648V21.448H158.04ZM168.52 22.104C168.274 22.3493 167.965 22.472 167.592 22.472C167.218 22.472 166.909 22.3493 166.664 22.104C166.418 21.848 166.296 21.5387 166.296 21.176C166.296 20.8133 166.418 20.5093 166.664 20.264C166.909 20.008 167.218 19.88 167.592 19.88C167.965 19.88 168.274 20.008 168.52 20.264C168.765 20.5093 168.888 20.8133 168.888 21.176C168.888 21.5387 168.765 21.848 168.52 22.104ZM166.712 31V23.544H168.456V31H166.712ZM177.224 29.352H178.088V32.92H176.344V31H171.64V32.92H169.8V29.352H170.568C170.984 29.0853 171.192 28.5307 171.192 27.688V23.544H177.224V29.352ZM172.424 29.56H175.48V24.984H172.936V27.608C172.936 28.3653 172.765 29.016 172.424 29.56ZM184.755 23.544V25.16H182.595V31H180.851V25.16H178.723V23.544H184.755ZM186.252 23.544H189.676C190.177 23.544 190.598 23.608 190.94 23.736C191.292 23.864 191.548 24.04 191.708 24.264C191.868 24.4773 191.98 24.6853 192.044 24.888C192.108 25.08 192.14 25.288 192.14 25.512C192.14 25.9493 191.969 26.3227 191.628 26.632C191.286 26.9413 190.881 27.112 190.412 27.144C190.924 27.1653 191.361 27.336 191.724 27.656C192.097 27.9653 192.284 28.392 192.284 28.936C192.284 29.1493 192.241 29.3627 192.156 29.576C192.081 29.7893 191.953 30.0133 191.772 30.248C191.59 30.472 191.308 30.6533 190.924 30.792C190.55 30.9307 190.097 31 189.564 31H186.252V23.544ZM189.532 26.6C189.788 26.6 189.996 26.5147 190.156 26.344C190.316 26.1627 190.396 25.944 190.396 25.688C190.396 25.4213 190.316 25.2027 190.156 25.032C189.996 24.8507 189.788 24.76 189.532 24.76H187.948V26.6H189.532ZM187.948 27.816V29.784H189.596C189.862 29.784 190.086 29.688 190.268 29.496C190.449 29.304 190.54 29.0747 190.54 28.808C190.54 28.5413 190.449 28.312 190.268 28.12C190.086 27.9173 189.862 27.816 189.596 27.816H187.948ZM200.705 26.888C200.705 27.08 200.689 27.4 200.657 27.848H195.121C195.142 28.4347 195.334 28.888 195.697 29.208C196.059 29.5173 196.561 29.672 197.201 29.672C198.022 29.672 198.577 29.3893 198.865 28.824H200.625C200.507 29.5173 200.129 30.088 199.489 30.536C198.859 30.9733 198.097 31.192 197.201 31.192C196.027 31.192 195.099 30.84 194.417 30.136C193.734 29.432 193.393 28.4773 193.393 27.272C193.393 26.0773 193.729 25.128 194.401 24.424C195.083 23.7093 195.995 23.352 197.137 23.352C198.203 23.352 199.062 23.6827 199.713 24.344C200.374 24.9947 200.705 25.8427 200.705 26.888ZM195.121 26.52H198.993C198.982 25.944 198.811 25.5013 198.481 25.192C198.161 24.8827 197.702 24.728 197.105 24.728C196.497 24.728 196.017 24.8933 195.665 25.224C195.313 25.5547 195.131 25.9867 195.121 26.52ZM206.534 23.352C207.601 23.352 208.459 23.7147 209.11 24.44C209.761 25.1547 210.086 26.0987 210.086 27.272C210.086 28.424 209.745 29.368 209.062 30.104C208.379 30.8293 207.499 31.192 206.422 31.192C205.931 31.192 205.467 31.0853 205.03 30.872C204.593 30.648 204.262 30.3547 204.038 29.992V34.36H202.294V23.544H204.038V24.552C204.262 24.1893 204.603 23.9013 205.062 23.688C205.521 23.464 206.011 23.352 206.534 23.352ZM206.166 29.64C206.806 29.64 207.329 29.4213 207.734 28.984C208.139 28.536 208.342 27.9653 208.342 27.272C208.342 26.5787 208.139 26.0133 207.734 25.576C207.329 25.128 206.806 24.904 206.166 24.904C205.505 24.904 204.971 25.1227 204.566 25.56C204.161 25.9973 203.958 26.568 203.958 27.272C203.958 27.976 204.161 28.5467 204.566 28.984C204.971 29.4213 205.505 29.64 206.166 29.64ZM218.291 29.352H219.155V32.92H217.411V31H212.707V32.92H210.867V29.352H211.635C212.051 29.0853 212.259 28.5307 212.259 27.688V23.544H218.291V29.352ZM213.491 29.56H216.547V24.984H214.003V27.608C214.003 28.3653 213.832 29.016 213.491 29.56ZM225.799 26.2L222.487 30.376V31H220.743V23.544H222.487V28.424L225.799 24.216V23.544H227.543V31H225.799V26.2ZM235.086 23.544V25.16H232.926V31H231.182V25.16H229.054V23.544H235.086ZM241.638 26.2L238.326 30.376V31H236.582V23.544H238.326V28.424L241.638 24.216V23.544H243.382V31H241.638V26.2Z" fill="white" style="fill:white;fill-opacity:1;"/>
</svg>
