<svg width="112" height="40" viewBox="0 0 112 40" fill="none" xmlns="http://www.w3.org/2000/svg">
<rect width="112" height="40" rx="20" fill="#543C52" style="fill:#543C52;fill:color(display-p3 0.3294 0.2353 0.3216);fill-opacity:1;"/>
<path d="M18.66 16.642V25H17.05V15.2H24.302V25H22.692V16.642H18.66ZM29.9576 18.308C30.8909 18.308 31.6422 18.6253 32.2116 19.26C32.7809 19.8853 33.0656 20.7113 33.0656 21.738C33.0656 22.746 32.7669 23.572 32.1696 24.216C31.5722 24.8507 30.8022 25.168 29.8596 25.168C29.4302 25.168 29.0242 25.0747 28.6416 24.888C28.2589 24.692 27.9696 24.4353 27.7736 24.118V27.94H26.2476V18.476H27.7736V19.358C27.9696 19.0407 28.2682 18.7887 28.6696 18.602C29.0709 18.406 29.5002 18.308 29.9576 18.308ZM29.6356 23.81C30.1956 23.81 30.6529 23.6187 31.0076 23.236C31.3622 22.844 31.5396 22.3447 31.5396 21.738C31.5396 21.1313 31.3622 20.6367 31.0076 20.254C30.6529 19.862 30.1956 19.666 29.6356 19.666C29.0569 19.666 28.5902 19.8573 28.2356 20.24C27.8809 20.6227 27.7036 21.122 27.7036 21.738C27.7036 22.354 27.8809 22.8533 28.2356 23.236C28.5902 23.6187 29.0569 23.81 29.6356 23.81ZM39.9087 24.202C39.2927 24.846 38.4574 25.168 37.4027 25.168C36.3481 25.168 35.5081 24.846 34.8827 24.202C34.2667 23.5487 33.9587 22.7273 33.9587 21.738C33.9587 20.7487 34.2667 19.932 34.8827 19.288C35.5081 18.6347 36.3481 18.308 37.4027 18.308C38.4574 18.308 39.2927 18.6347 39.9087 19.288C40.5341 19.932 40.8467 20.7487 40.8467 21.738C40.8467 22.7273 40.5341 23.5487 39.9087 24.202ZM35.9887 23.236C36.3341 23.6187 36.8054 23.81 37.4027 23.81C38.0001 23.81 38.4667 23.6187 38.8027 23.236C39.1481 22.8533 39.3207 22.354 39.3207 21.738C39.3207 21.122 39.1481 20.6227 38.8027 20.24C38.4667 19.8573 38.0001 19.666 37.4027 19.666C36.8054 19.666 36.3341 19.8573 35.9887 20.24C35.6527 20.6227 35.4847 21.122 35.4847 21.738C35.4847 22.354 35.6527 22.8533 35.9887 23.236ZM47.7486 23.558H48.5046V26.68H46.9786V25H42.8626V26.68H41.2526V23.558H41.9246C42.2886 23.3247 42.4706 22.8393 42.4706 22.102V18.476H47.7486V23.558ZM43.5486 23.74H46.2226V19.736H43.9966V22.032C43.9966 22.6947 43.8473 23.264 43.5486 23.74ZM55.0806 24.202C54.4646 24.846 53.6292 25.168 52.5746 25.168C51.5199 25.168 50.6799 24.846 50.0546 24.202C49.4386 23.5487 49.1306 22.7273 49.1306 21.738C49.1306 20.7487 49.4386 19.932 50.0546 19.288C50.6799 18.6347 51.5199 18.308 52.5746 18.308C53.6292 18.308 54.4646 18.6347 55.0806 19.288C55.7059 19.932 56.0186 20.7487 56.0186 21.738C56.0186 22.7273 55.7059 23.5487 55.0806 24.202ZM51.1606 23.236C51.5059 23.6187 51.9772 23.81 52.5746 23.81C53.1719 23.81 53.6386 23.6187 53.9746 23.236C54.3199 22.8533 54.4926 22.354 54.4926 21.738C54.4926 21.122 54.3199 20.6227 53.9746 20.24C53.6386 19.8573 53.1719 19.666 52.5746 19.666C51.9772 19.666 51.5059 19.8573 51.1606 20.24C50.8246 20.6227 50.6566 21.122 50.6566 21.738C50.6566 22.354 50.8246 22.8533 51.1606 23.236ZM57.3979 18.476H60.3939C60.8326 18.476 61.2012 18.532 61.4999 18.644C61.8079 18.756 62.0319 18.91 62.1719 19.106C62.3119 19.2927 62.4099 19.4747 62.4659 19.652C62.5219 19.82 62.5499 20.002 62.5499 20.198C62.5499 20.5807 62.4006 20.9073 62.1019 21.178C61.8032 21.4487 61.4486 21.598 61.0379 21.626C61.4859 21.6447 61.8686 21.794 62.1859 22.074C62.5126 22.3447 62.6759 22.718 62.6759 23.194C62.6759 23.3807 62.6386 23.5673 62.5639 23.754C62.4986 23.9407 62.3866 24.1367 62.2279 24.342C62.0692 24.538 61.8219 24.6967 61.4859 24.818C61.1592 24.9393 60.7626 25 60.2959 25H57.3979V18.476ZM60.2679 21.15C60.4919 21.15 60.6739 21.0753 60.8139 20.926C60.9539 20.7673 61.0239 20.576 61.0239 20.352C61.0239 20.1187 60.9539 19.9273 60.8139 19.778C60.6739 19.6193 60.4919 19.54 60.2679 19.54H58.8819V21.15H60.2679ZM58.8819 22.214V23.936H60.3239C60.5572 23.936 60.7532 23.852 60.9119 23.684C61.0706 23.516 61.1499 23.3153 61.1499 23.082C61.1499 22.8487 61.0706 22.648 60.9119 22.48C60.7532 22.3027 60.5572 22.214 60.3239 22.214H58.8819ZM73.4127 25H71.5367L69.1147 22.018V25H67.5887V22.018L65.1667 25H63.2907L66.1607 21.556H66.0627C65.8574 21.556 65.6847 21.5187 65.5447 21.444C65.4047 21.36 65.2414 21.1827 65.0547 20.912L64.5227 20.17C64.336 19.9087 64.0934 19.778 63.7947 19.778H63.5707V18.406H64.0887C64.434 18.406 64.7047 18.462 64.9007 18.574C65.106 18.6767 65.3254 18.8867 65.5587 19.204L66.7067 20.772C66.9214 21.0613 67.1687 21.206 67.4487 21.206H67.5887V18.476H69.1147V21.206H69.2547C69.5347 21.206 69.782 21.0613 69.9967 20.772L71.1447 19.204C71.378 18.8867 71.5927 18.6767 71.7887 18.574C71.994 18.462 72.2694 18.406 72.6147 18.406H73.1327V19.778H72.9087C72.61 19.778 72.3674 19.9087 72.1807 20.17L71.6487 20.912C71.462 21.1827 71.2987 21.36 71.1587 21.444C71.0187 21.5187 70.846 21.556 70.6407 21.556H70.5427L73.4127 25ZM79.359 20.8L76.461 24.454V25H74.935V18.476H76.461V22.746L79.359 19.064V18.476H80.885V25H79.359V20.8ZM87.485 18.476V19.89H85.595V25H84.069V19.89H82.207V18.476H87.485ZM93.2183 20.8L90.3203 24.454V25H88.7943V18.476H90.3203V22.746L93.2183 19.064V18.476H94.7443V25H93.2183V20.8Z" fill="white" style="fill:white;fill-opacity:1;"/>
</svg>
